<svg width="16" height="17" viewBox="0 0 16 17" fill="none" xmlns="http://www.w3.org/2000/svg">
<path fill-rule="evenodd" clip-rule="evenodd" d="M15.7078 14.5737C15.6016 14.6796 15.4735 14.8151 15.3376 14.9583C14.9986 15.3181 14.5751 15.7653 14.3097 15.9467C12.9131 16.901 11.0447 16.4444 9.72314 15.8937C7.97973 15.1673 6.08164 13.8284 4.37736 12.1239C2.67148 10.4193 1.33267 8.52059 0.606264 6.77818C0.0562639 5.45631 -0.40133 3.58756 0.553139 2.19068C0.734389 1.92506 1.18267 1.50221 1.54198 1.16256C1.68573 1.02712 1.82011 0.899152 1.92636 0.793245C2.11499 0.605551 2.37027 0.500183 2.63637 0.500183C2.90248 0.500183 3.15776 0.605551 3.34639 0.793245L5.91601 3.36212C6.10361 3.55074 6.20891 3.80595 6.20891 4.07198C6.20891 4.33801 6.10361 4.59322 5.91601 4.78184L5.21601 5.48043C4.98224 5.7125 4.82965 6.01385 4.78095 6.33963C4.73225 6.66541 4.79004 6.99821 4.94573 7.2885C5.90854 9.1057 7.39493 10.5918 9.2123 11.5543C9.50252 11.71 9.83525 11.7677 10.1609 11.7189C10.4866 11.6701 10.7878 11.5175 11.0197 11.2836L11.718 10.585C11.9066 10.3973 12.1619 10.2919 12.428 10.2919C12.6941 10.2919 12.9494 10.3973 13.138 10.585L15.7078 13.1543C15.8954 13.3429 16.0007 13.598 16.0007 13.864C16.0007 14.13 15.8954 14.3852 15.7078 14.5737Z" fill="#313132"/>
</svg>
