<svg width="21" height="20" viewBox="0 0 21 20" fill="none" xmlns="http://www.w3.org/2000/svg">
<path fill-rule="evenodd" clip-rule="evenodd" d="M5.5 0C4.17392 0 2.90215 0.526784 1.96447 1.46447C1.02678 2.40215 0.5 3.67392 0.5 5V15C0.5 16.3261 1.02678 17.5979 1.96447 18.5355C2.90215 19.4732 4.17392 20 5.5 20H15.5C16.8261 20 18.0979 19.4732 19.0355 18.5355C19.9732 17.5979 20.5 16.3261 20.5 15V5C20.5 3.67392 19.9732 2.40215 19.0355 1.46447C18.0979 0.526784 16.8261 0 15.5 0H5.5ZM15.14 6.232C15.3436 6.40178 15.4715 6.64547 15.4955 6.9095C15.5195 7.17353 15.4377 7.43628 15.268 7.64L10.268 13.64C10.1816 13.7436 10.0752 13.8286 9.95515 13.8899C9.83508 13.9513 9.70384 13.9877 9.56933 13.9971C9.43481 14.0064 9.29979 13.9885 9.17239 13.9443C9.045 13.9001 8.92785 13.8306 8.828 13.74L5.828 11.013C5.6354 10.8337 5.52123 10.5857 5.51024 10.3228C5.49926 10.0599 5.59235 9.80325 5.76932 9.60851C5.94629 9.41378 6.19289 9.29664 6.45565 9.28251C6.71841 9.26837 6.97616 9.35837 7.173 9.533L9.4 11.558L13.732 6.36C13.9018 6.15638 14.1455 6.02852 14.4095 6.00451C14.6735 5.98051 14.9363 6.06234 15.14 6.232Z" fill="white"/>
</svg>
