<svg width="24" height="24" viewBox="0 0 24 24" fill="none" xmlns="http://www.w3.org/2000/svg">
<circle cx="12" cy="12" r="6" fill="black"/>
<path d="M22.577 14.3046C22.1056 13.5713 21.6344 12.864 21.163 12.1309C21.0585 11.9739 21.0585 11.8691 21.163 11.712C21.6344 11.005 22.0794 10.2978 22.5508 9.59083C23.1007 8.75292 22.8127 7.94091 21.8699 7.60062C21.0846 7.3126 20.2991 6.99844 19.5136 6.71043C19.3565 6.65791 19.2779 6.55311 19.2779 6.36989C19.2517 5.50584 19.1995 4.64155 19.1469 3.80364C19.0947 2.88707 18.3878 2.36332 17.4975 2.59906C16.6597 2.80841 15.8219 3.04415 15.01 3.27989C14.8268 3.33217 14.7223 3.27989 14.5911 3.14895C14.0675 2.46788 13.5176 1.81343 12.9942 1.15874C12.418 0.425624 11.5277 0.425624 10.9256 1.15874C10.402 1.81343 9.85214 2.46812 9.3546 3.12281C9.22368 3.30603 9.09276 3.33217 8.88343 3.27989C8.07178 3.04415 7.26013 2.83479 6.68394 2.67748C5.55818 2.4156 4.87744 2.86093 4.82493 3.80364C4.77266 4.66769 4.72039 5.53198 4.69401 6.42241C4.69401 6.60563 4.61561 6.68405 4.45855 6.76271L2.02359 7.70541C1.18556 8.04595 0.923726 8.85772 1.42127 9.61697C1.89267 10.3503 2.36384 11.0573 2.83524 11.7904C2.93979 11.9477 2.93979 12.0523 2.83524 12.2357C2.34006 12.9677 1.85992 13.7098 1.39513 14.4614C0.950101 15.1687 1.23808 16.0066 2.02335 16.3207C2.83524 16.6349 3.67303 16.949 4.48469 17.2634C4.66788 17.316 4.72039 17.4205 4.72039 17.604C4.74652 18.4419 4.85131 19.2539 4.85131 20.0916C4.85131 20.9297 5.58431 21.689 6.60553 21.3748C7.41719 21.1129 8.22884 20.9297 9.04049 20.6937C9.19755 20.6415 9.30233 20.6678 9.40711 20.8249C9.95693 21.5057 10.4806 22.1604 11.0304 22.8413C11.6325 23.5744 12.4967 23.5744 13.0726 22.8413C13.6224 22.1602 14.1461 21.5055 14.6959 20.8249C14.8007 20.694 14.8791 20.6415 15.0625 20.694C15.9003 20.9297 16.7381 21.1391 17.5761 21.3748C18.4401 21.6105 19.1731 21.0868 19.1995 20.1964C19.2517 19.3323 19.304 18.468 19.3304 17.5776C19.3304 17.3682 19.4349 17.2898 19.5922 17.2373C20.3907 16.9432 21.1849 16.6376 21.9747 16.3207C22.8127 15.9018 23.0745 15.0641 22.577 14.3046ZM16.3192 10.0095L11.0827 15.2471C10.9518 15.3778 10.7686 15.4826 10.5851 15.5087C10.5329 15.5087 10.4542 15.5351 10.402 15.5351C10.1663 15.5351 9.90441 15.4303 9.72122 15.2468L7.57424 13.0995C7.39811 12.9219 7.29927 12.6819 7.29927 12.4318C7.29927 12.1816 7.39811 11.9416 7.57424 11.764C7.75181 11.5879 7.99179 11.489 8.24191 11.489C8.49202 11.489 8.732 11.5879 8.90957 11.764L10.3758 13.2305L14.9316 8.67402C15.1092 8.49786 15.3492 8.39902 15.5993 8.39902C15.8494 8.39902 16.0894 8.49786 16.267 8.67402C16.6858 9.0407 16.6858 9.64263 16.3192 10.0095Z" fill="#FFDD2D"/>
</svg>
