<svg width="16" height="16" viewBox="0 0 16 16" fill="none" xmlns="http://www.w3.org/2000/svg">
<path fill-rule="evenodd" clip-rule="evenodd" d="M8 0.5C6.51664 0.5 5.0666 0.939867 3.83323 1.76398C2.59986 2.58809 1.63856 3.75943 1.07091 5.12987C0.50325 6.50032 0.354725 8.00832 0.644114 9.46318C0.933503 10.918 1.64781 12.2544 2.6967 13.3033C3.7456 14.3522 5.08197 15.0665 6.53683 15.3559C7.99168 15.6453 9.49968 15.4968 10.8701 14.9291C12.2406 14.3614 13.4119 13.4001 14.236 12.1668C15.0601 10.9334 15.5 9.48336 15.5 8C15.5 7.01509 15.306 6.03982 14.9291 5.12987C14.5522 4.21993 13.9997 3.39314 13.3033 2.6967C12.6069 2.00026 11.7801 1.44781 10.8701 1.0709C9.96019 0.693993 8.98492 0.5 8 0.5ZM10.6475 10.6475C10.5954 10.6998 10.5334 10.7414 10.4652 10.7697C10.397 10.798 10.3239 10.8126 10.25 10.8126C10.1761 10.8126 10.103 10.798 10.0348 10.7697C9.96657 10.7414 9.90463 10.6998 9.8525 10.6475L7.6025 8.3975C7.55016 8.34539 7.50863 8.28345 7.48031 8.21523C7.45199 8.14701 7.43745 8.07386 7.4375 8V4.25C7.4375 4.10082 7.49677 3.95774 7.60226 3.85225C7.70775 3.74676 7.85082 3.6875 8 3.6875C8.14919 3.6875 8.29226 3.74676 8.39775 3.85225C8.50324 3.95774 8.5625 4.10082 8.5625 4.25V7.76675L10.6475 9.8525C10.6998 9.90467 10.7412 9.96664 10.7695 10.0348C10.7978 10.1031 10.8123 10.1762 10.8123 10.25C10.8123 10.3238 10.7978 10.397 10.7695 10.4652C10.7412 10.5334 10.6998 10.5953 10.6475 10.6475Z" fill="#EAECEE"/>
</svg>
