<svg width="16" height="20" viewBox="0 0 16 20" fill="none" xmlns="http://www.w3.org/2000/svg">
<path d="M3.12325 0H9.81509L15.4797 5.90996V17.3982C15.4797 18.8353 14.315 20 12.8779 20H3.12325C1.6862 20 0.521484 18.8353 0.521484 17.3982V2.60177C0.521484 1.16474 1.6862 0 3.12325 0Z" fill="#0263D1"/>
<path fill-rule="evenodd" clip-rule="evenodd" d="M9.80664 0V5.86141H15.4793L9.80664 0Z" fill="#313132"/>
<path d="M2.9375 14.2707V10.9598H4.11033C4.34488 10.9598 4.56329 10.9949 4.7655 11.0596C4.96771 11.127 5.15105 11.2241 5.31553 11.3535C5.47998 11.4829 5.60942 11.6555 5.70378 11.8712C5.79813 12.0868 5.84668 12.3349 5.84668 12.6153C5.84668 12.8957 5.79813 13.1437 5.70378 13.3594C5.60942 13.5751 5.47998 13.7476 5.31553 13.8771C5.15107 14.0065 4.96771 14.1035 4.7655 14.1709C4.56329 14.2357 4.34491 14.2707 4.11033 14.2707H2.9375ZM3.76522 13.5508H4.01056C4.14267 13.5508 4.2667 13.5347 4.37723 13.505C4.49046 13.4727 4.59291 13.4214 4.68997 13.354C4.78703 13.2866 4.86251 13.1896 4.91644 13.0628C4.97307 12.9388 5.00001 12.7878 5.00001 12.6153C5.00001 12.4427 4.97304 12.2917 4.91644 12.165C4.86251 12.041 4.78703 11.9439 4.68997 11.8765C4.59291 11.8064 4.49046 11.7579 4.37723 11.7255C4.2667 11.6959 4.14267 11.6797 4.01056 11.6797H3.76522V13.5508ZM7.85528 14.3085C7.35651 14.3085 6.944 14.1467 6.61776 13.8259C6.29153 13.505 6.12975 13.1006 6.12975 12.6153C6.12975 12.13 6.29153 11.7256 6.61776 11.4047C6.944 11.0839 7.35651 10.9221 7.85528 10.9221C8.34598 10.9221 8.7531 11.0839 9.07933 11.4047C9.40287 11.7256 9.56464 12.13 9.56464 12.6153C9.56464 13.1006 9.40287 13.505 9.07933 13.8259C8.7531 14.1467 8.34598 14.3085 7.85528 14.3085ZM7.21899 13.3136C7.38344 13.4969 7.59374 13.5886 7.84988 13.5886C8.10601 13.5886 8.3136 13.4969 8.47809 13.3136C8.64254 13.1275 8.72343 12.8957 8.72343 12.6153C8.72343 12.3349 8.64254 12.103 8.47809 11.917C8.31363 11.7336 8.10601 11.642 7.84988 11.642C7.59374 11.642 7.38344 11.7336 7.21899 11.917C7.05453 12.103 6.97094 12.3349 6.97094 12.6153C6.97094 12.8957 7.05453 13.1275 7.21899 13.3136ZM11.5328 14.3085C11.0502 14.3085 10.6485 14.1575 10.3303 13.8609C10.0095 13.5616 9.85045 13.1464 9.85045 12.6153C9.85045 12.0868 10.0122 11.6716 10.3358 11.3723C10.662 11.0731 11.0583 10.9221 11.5328 10.9221C11.9615 10.9221 12.312 11.0272 12.5897 11.2402C12.8647 11.4505 13.0238 11.7309 13.0643 12.0814L12.2284 12.2513C12.1934 12.068 12.1098 11.9197 11.9804 11.8091C11.851 11.6986 11.7 11.642 11.5274 11.642C11.2902 11.642 11.0933 11.7255 10.9343 11.8954C10.7752 12.0679 10.6943 12.3052 10.6943 12.6153C10.6943 12.9253 10.7752 13.1626 10.9316 13.3324C11.0906 13.505 11.2875 13.5886 11.5274 13.5886C11.7 13.5886 11.8483 13.5401 11.9696 13.443C12.0909 13.3459 12.1664 13.2165 12.1988 13.0547L13.0534 13.2489C12.9753 13.5832 12.8027 13.842 12.5331 14.028C12.2662 14.2141 11.9319 14.3085 11.5328 14.3085Z" fill="white"/>
</svg>
