<svg width="18" height="18" viewBox="0 0 18 18" fill="none" xmlns="http://www.w3.org/2000/svg">
<rect width="18" height="18" rx="4" fill="#EAECEE"/>
<path d="M6 6.5C6 5.90666 6.17595 5.32664 6.50559 4.83329C6.83524 4.33994 7.30377 3.95543 7.85195 3.72836C8.40013 3.5013 9.00333 3.44189 9.58527 3.55765C10.1672 3.6734 10.7018 3.95912 11.1213 4.37868C11.5409 4.79824 11.8266 5.33279 11.9424 5.91473C12.0581 6.49667 11.9987 7.09987 11.7716 7.64805C11.5446 8.19623 11.1601 8.66477 10.6667 8.99441C10.1734 9.32405 9.59334 9.5 9 9.5C8.20435 9.5 7.44129 9.18393 6.87868 8.62132C6.31607 8.05871 6 7.29565 6 6.5ZM11 10H10C9.9181 9.99988 9.83742 10.0199 9.76506 10.0582C9.6927 10.0966 9.63086 10.1521 9.585 10.22L9 11.085L8.5 10.235C8.45496 10.1629 8.39231 10.1036 8.31795 10.0624C8.24359 10.0213 8.15997 9.99983 8.075 10H7C6.46957 10 5.96086 10.2107 5.58579 10.5858C5.21071 10.9609 5 11.4696 5 12V14C5 14.1326 5.05268 14.2598 5.14645 14.3536C5.24021 14.4473 5.36739 14.5 5.5 14.5H12.5C12.6326 14.5 12.7598 14.4473 12.8536 14.3536C12.9473 14.2598 13 14.1326 13 14V12C13 11.4696 12.7893 10.9609 12.4142 10.5858C12.0391 10.2107 11.5304 10 11 10Z" fill="#757B8D"/>
</svg>
