<svg width="18" height="18" viewBox="0 0 18 18" fill="none" xmlns="http://www.w3.org/2000/svg">
<rect width="18" height="18" rx="4" fill="#EAECEE"/>
<path fill-rule="evenodd" clip-rule="evenodd" d="M11.9805 5.31294C13.1943 5.59458 13.6586 6.30434 14.2407 7.28125H11.9805V5.31294ZM4.8869 7.36328C5.12457 7.36328 5.29705 7.47799 5.29705 7.74609C5.29705 7.97223 5.1141 8.15562 4.88807 8.15625H2.41016C2.18361 8.15625 2 8.33997 2 8.56641C2 8.79295 2.18361 8.97656 2.41016 8.97656H6.10156C6.33024 8.97656 6.51333 9.16004 6.51333 9.38672C6.51333 9.61326 6.32972 9.79688 6.10318 9.79688H2.41016C2.18361 9.79688 2 9.98049 2 10.207C2 10.4336 2.18361 10.6172 2.41016 10.6172H3.3125V11.8477C3.3125 12.0742 3.49611 12.2578 3.72266 12.2578H4.54713C4.6941 12.9818 5.3338 13.5156 6.08789 13.5156C6.84198 13.5156 7.48168 12.9818 7.62866 12.2578H11.7932C11.9402 12.9818 12.5799 13.5156 13.334 13.5156C14.0881 13.5156 14.7278 12.9818 14.8748 12.2578H15.5898C15.8164 12.2578 16 12.0742 16 11.8477V9.38672C16 8.18327 14.7306 8.10337 14.7295 8.10156H11.5703C11.3438 8.10156 11.1602 7.91795 11.1602 7.69141V5.23047H3.72266C3.49611 5.23047 3.3125 5.41408 3.3125 5.64062V6.54297H2.82031C2.59377 6.54297 2.41016 6.72658 2.41016 6.95312C2.41016 7.17967 2.59377 7.36328 2.82031 7.36328H4.8869ZM13.8657 11.4117C14.1593 11.7053 14.1593 12.1816 13.8657 12.4752C13.3934 12.9475 12.582 12.6115 12.582 11.9434C12.582 11.2754 13.3934 10.9393 13.8657 11.4117ZM6.61959 11.4117C6.91323 11.7053 6.91323 12.1816 6.61959 12.4752C6.14728 12.9475 5.33594 12.6115 5.33594 11.9434C5.33594 11.2754 6.14728 10.9393 6.61959 11.4117Z" fill="#757B8D"/>
</svg>
