<svg width="16" height="16" viewBox="0 0 16 16" fill="none" xmlns="http://www.w3.org/2000/svg">
<path d="M15.5754 7.06652L9.5648 1.05597C9.14936 0.640524 8.47686 0.640524 8.06247 1.05597C7.64703 1.47141 7.64703 2.14397 8.06247 2.55836L12.441 6.93797L1.19336 6.93797C0.606859 6.93797 0.130859 7.41397 0.130859 8.00047C0.130859 8.58697 0.606859 9.06297 1.19336 9.06297H12.441L8.06242 13.4415C7.64697 13.857 7.64697 14.5295 8.06242 14.9439C8.47786 15.3594 9.15042 15.3594 9.56475 14.9439L15.5753 8.93336C15.8303 8.67836 15.9089 8.32986 15.8516 7.99941C15.909 7.67108 15.8293 7.32152 15.5754 7.06652Z" fill="#313132"/>
</svg>
