<svg width="10" height="13" viewBox="0 0 10 13" fill="none" xmlns="http://www.w3.org/2000/svg">
<path d="M4.87504 0C2.18727 0 0 2.20244 0 4.91025C0 8.75775 4.41679 12.7304 4.60475 12.8972C4.67904 12.9637 4.77523 13.0005 4.87494 13.0006C4.97465 13.0007 5.07091 12.9641 5.14534 12.8977C5.3333 12.7304 9.75009 8.75775 9.75009 4.91025C9.75009 2.20244 7.56282 0 4.87504 0ZM4.87504 7.5834C3.38166 7.5834 2.16669 6.36843 2.16669 4.87504C2.16669 3.38166 3.38166 2.16669 4.87504 2.16669C6.36843 2.16669 7.5834 3.38166 7.5834 4.87504C7.5834 6.36843 6.36843 7.5834 4.87504 7.5834Z" fill="#757B8D"/>
</svg>
