<svg width="25" height="25" viewBox="0 0 25 25" fill="none" xmlns="http://www.w3.org/2000/svg">
<g clip-path="url(#clip0_126_690)">
<path d="M23.0757 6.91058L12.8284 0.592326C12.7306 0.532042 12.6169 0.499992 12.5007 0.499992C12.3845 0.499992 12.2708 0.532042 12.1731 0.592326L1.9253 6.90802C1.83976 6.96074 1.76939 7.03326 1.72067 7.11891C1.67195 7.20455 1.64644 7.30058 1.64648 7.39817L1.64897 17.8786C1.64902 17.9781 1.67561 18.0759 1.72621 18.1627C1.77682 18.2495 1.84974 18.3224 1.93803 18.3745L12.1834 24.414C12.2788 24.4703 12.3887 24.5001 12.5007 24.5001C12.6127 24.5002 12.7226 24.4703 12.818 24.414L23.064 18.3769C23.1523 18.3248 23.2252 18.2519 23.2758 18.1651C23.3264 18.0783 23.353 17.9804 23.353 17.881L23.3544 7.40055C23.3544 7.30301 23.3289 7.20703 23.2802 7.12143C23.2315 7.03582 23.1612 6.96332 23.0757 6.91058ZM12.5006 1.9918L16.2563 4.29868L12.5006 6.60544L8.74512 4.29868L12.5006 1.9918ZM3.04424 17.4544V13.7325L6.72444 15.8775L6.72505 19.625L3.04424 17.4544ZM6.72505 14.3325L3.04418 12.1621V8.39342L6.72505 10.6545V14.3325ZM3.83392 7.30113L7.4228 5.0967L11.0117 7.30113L7.4228 9.50555L3.83392 7.30113ZM8.12025 10.6545L11.8012 8.3933V12.1621L8.12025 14.3325V10.6545ZM8.12207 16.6787L10.5687 18.1814L8.12207 19.6241V16.6787ZM11.803 22.6177L8.75707 20.8217L11.803 19.026V22.6177ZM12.5001 17.7913L8.73596 15.5347L12.5001 13.2882L16.2642 15.5429L12.5001 17.7913ZM13.1983 22.6177V19.0292L16.242 20.8229L13.1983 22.6177ZM16.8793 19.6267L14.4303 18.1828L16.8793 16.6785V19.6267ZM16.8811 14.3352L13.2003 12.1647V8.39627L16.8811 10.6573V14.3352ZM13.9899 7.30375L17.5788 5.09944L21.1677 7.30375L17.5788 9.50817L13.9899 7.30375ZM21.9575 17.4571L18.2765 19.6276V15.9504L21.9575 13.7393V17.4571ZM21.9575 12.1647L18.2765 14.3352V10.6573L21.9575 8.39609V12.1647Z" fill="#FFDD2D"/>
</g>
<defs>
<clipPath id="clip0_126_690">
<rect width="25" height="24" fill="white" transform="translate(0 0.5)"/>
</clipPath>
</defs>
</svg>
