<svg width="13" height="10" viewBox="0 0 13 10" fill="none" xmlns="http://www.w3.org/2000/svg">
<path fill-rule="evenodd" clip-rule="evenodd" d="M1.30961 0.100538C0.764768 0.282608 0.329764 0.723566 0.11489 1.31165C0.0676279 1.44112 0.0379742 1.55475 0.0490497 1.56408C0.0601251 1.57347 1.51172 2.49919 3.27486 3.62126C5.13809 4.80698 6.51154 5.64889 6.55452 5.63166C6.61439 5.60765 12.882 1.62196 12.9511 1.56392C12.9621 1.55464 12.9325 1.44112 12.8852 1.31165C12.6672 0.715084 12.2327 0.279834 11.6736 0.0979772C11.3805 0.00259467 11.1229 -0.00220625 6.48276 0.000514393C1.90493 0.00318169 1.58221 0.00942317 1.30961 0.100538ZM0.0036761 5.71899L0.01812 8.55966L0.155313 8.86565C0.330376 9.25604 0.701786 9.64424 1.09106 9.84364L1.39617 10H6.50006H11.604L11.9091 9.84364C12.2983 9.64424 12.6697 9.25604 12.8448 8.86565L12.982 8.55966L12.9964 5.71899C13.0044 4.15659 12.9985 2.87832 12.9834 2.87832C12.9683 2.87832 11.5746 3.75799 9.88624 4.83312C8.19792 5.90831 6.73183 6.81045 6.62827 6.83792C6.48858 6.87499 6.39349 6.86758 6.26002 6.80932C6.16106 6.76606 4.72156 5.86393 3.06111 4.80453C1.40071 3.74508 0.0302164 2.87832 0.0156703 2.87832C0.00112418 2.87832 -0.00428597 4.15659 0.0036761 5.71899Z" fill="#757B8D"/>
</svg>
