<svg width="20" height="20" viewBox="0 0 20 20" fill="none" xmlns="http://www.w3.org/2000/svg">
<g clip-path="url(#clip0_71_5)">
<path fill-rule="evenodd" clip-rule="evenodd" d="M6.5859 0H13.3593L19.3382 5.98012V17.4637C19.3382 18.8582 18.1975 20 16.802 20H6.58594C5.19148 20 4.05078 18.8582 4.05078 17.4637V2.53629C4.05078 1.14184 5.19148 0 6.5859 0Z" fill="#E5252A"/>
<path fill-rule="evenodd" clip-rule="evenodd" d="M13.3584 0L19.3374 5.98012H14.0031C13.6476 5.98012 13.3584 5.6898 13.3584 5.33434V0ZM1.21875 8.51641H14.9929C15.2992 8.51641 15.5495 8.76672 15.5495 9.07305V14.1262C15.5495 14.4325 15.2992 14.6828 14.9929 14.6828H1.21875C0.912422 14.6828 0.662109 14.4325 0.662109 14.1262V9.07305C0.662109 8.76672 0.912461 8.51641 1.21875 8.51641Z" fill="#B71D21"/>
<path d="M4.60016 9.54684H3.56117C3.47554 9.54684 3.39341 9.58086 3.33285 9.64142C3.2723 9.70197 3.23828 9.7841 3.23828 9.86973V13.3284C3.23828 13.414 3.2723 13.4962 3.33285 13.5567C3.39341 13.6173 3.47554 13.6513 3.56117 13.6513C3.64681 13.6513 3.72894 13.6173 3.78949 13.5567C3.85004 13.4962 3.88406 13.414 3.88406 13.3284V12.3151H4.60012C5.35105 12.3151 5.96199 11.7042 5.96199 10.9533V10.9087C5.96203 10.1578 5.35109 9.54684 4.60016 9.54684ZM5.31625 10.9533C5.31625 11.3481 4.995 11.6693 4.60016 11.6693H3.88406V10.1926H4.60012C4.99496 10.1926 5.31621 10.5138 5.31621 10.9086V10.9533H5.31625ZM8.07484 9.54684H7.0359C6.95026 9.54684 6.86813 9.58086 6.80758 9.64142C6.74703 9.70197 6.71301 9.7841 6.71301 9.86973V13.3284C6.71301 13.414 6.74703 13.4962 6.80758 13.5567C6.86813 13.6173 6.95026 13.6513 7.0359 13.6513H8.07484C8.82578 13.6513 9.43672 13.0404 9.43672 12.2895V10.9087C9.43672 10.1578 8.82578 9.54684 8.07484 9.54684ZM8.79094 12.2894C8.79094 12.6843 8.46969 13.0055 8.07484 13.0055H7.35879V10.1926H8.07484C8.46969 10.1926 8.79094 10.5138 8.79094 10.9086V12.2894ZM10.8963 10.1926V11.0865H12.393C12.4787 11.0865 12.5608 11.1205 12.6214 11.181C12.6819 11.2416 12.7159 11.3237 12.7159 11.4093C12.7159 11.495 12.6819 11.5771 12.6214 11.6377C12.5608 11.6982 12.4787 11.7322 12.393 11.7322H10.8963V13.3284C10.8963 13.414 10.8623 13.4962 10.8017 13.5567C10.7412 13.6173 10.659 13.6513 10.5734 13.6513C10.4878 13.6513 10.4056 13.6173 10.3451 13.5567C10.2845 13.4962 10.2505 13.414 10.2505 13.3284V9.86973C10.2505 9.7841 10.2845 9.70197 10.3451 9.64142C10.4056 9.58086 10.4878 9.54684 10.5734 9.54684H12.6513C12.737 9.54684 12.8191 9.58086 12.8796 9.64142C12.9402 9.70197 12.9742 9.7841 12.9742 9.86973C12.9742 9.95537 12.9402 10.0375 12.8796 10.0981C12.8191 10.1586 12.737 10.1926 12.6513 10.1926H10.8963Z" fill="white"/>
</g>
<defs>
<clipPath id="clip0_71_5">
<rect width="20" height="20" fill="white"/>
</clipPath>
</defs>
</svg>
