<svg width="21" height="22" viewBox="0 0 21 22" fill="none" xmlns="http://www.w3.org/2000/svg">
<path d="M20.665 12.5685L19.8772 11.3578C19.8079 11.2513 19.771 11.127 19.771 10.9999C19.771 10.8729 19.8079 10.7485 19.8772 10.6421L20.6654 9.43089C21.3829 8.32621 20.8974 6.84649 19.6729 6.37854L18.3243 5.86185C18.2056 5.81637 18.1027 5.73744 18.0279 5.63463C17.9532 5.53183 17.9098 5.40955 17.9031 5.28262L17.8289 3.84035C17.7617 2.52894 16.5031 1.61283 15.2316 1.95308L13.8372 2.32816C13.5874 2.39529 13.3189 2.30891 13.1562 2.10707L12.248 0.983727C11.4215 -0.0391569 9.86163 -0.0374721 9.0376 0.984443L8.1294 2.10715C8.04958 2.20596 7.94278 2.27945 7.82197 2.3187C7.70117 2.35795 7.57157 2.36126 7.44891 2.32824L6.05449 1.95341C4.78643 1.61186 3.52409 2.52734 3.45674 3.84043L3.38252 5.28296C3.37597 5.40982 3.33273 5.53206 3.25806 5.63483C3.18339 5.73761 3.0805 5.8165 2.96187 5.86194L1.61327 6.3782C0.387286 6.84767 -0.0967144 8.32806 0.621179 9.4319L1.4084 10.6416C1.47768 10.7482 1.51459 10.8726 1.51467 10.9997C1.51475 11.1268 1.478 11.2512 1.40886 11.3579L0.621179 12.5686C-0.0963774 13.6699 0.386528 15.153 1.61327 15.6218L2.96187 16.1382C3.0805 16.1838 3.18338 16.2627 3.25804 16.3655C3.33271 16.4683 3.37595 16.5906 3.38252 16.7175L3.45674 18.16C3.52396 19.4712 4.7836 20.3879 6.05449 20.047L7.44891 19.6717C7.69822 19.6048 7.96581 19.691 8.12987 19.8935L9.03764 21.0163C9.86256 22.0371 11.4199 22.0397 12.2485 21.0167L13.1563 19.8935C13.2362 19.7948 13.343 19.7213 13.4637 19.6819C13.5845 19.6426 13.7141 19.639 13.8368 19.6717L15.2326 20.0475C16.4983 20.3868 17.7616 19.4749 17.8289 18.16L17.9031 16.7179C17.9098 16.5909 17.9531 16.4685 18.0278 16.3656C18.1026 16.2628 18.2056 16.1837 18.3243 16.1382L19.6729 15.6222C20.8985 15.1529 21.383 13.6724 20.665 12.5685ZM7.79624 7.20712C8.57251 7.20712 9.20393 7.83859 9.20393 8.61482C9.20393 9.39109 8.57246 10.0225 7.79624 10.0225C7.01996 10.0225 6.38854 9.39105 6.38854 8.61482C6.38854 7.83859 7.02001 7.20712 7.79624 7.20712ZM12.9578 15.1841C12.1816 15.1841 11.5501 14.5527 11.5501 13.7765C11.5501 13.0002 12.1816 12.3688 12.9578 12.3688C13.7341 12.3688 14.3655 13.0002 14.3655 13.7765C14.3656 14.5527 13.7341 15.1841 12.9578 15.1841ZM14.1594 8.40864L7.59006 14.9779C7.3151 15.2529 6.86972 15.2529 6.59476 14.9779C6.31985 14.703 6.31985 14.2575 6.59476 13.9826L13.1641 7.41334C13.439 7.13843 13.8844 7.13843 14.1593 7.41334C14.4343 7.68826 14.4343 8.13368 14.1594 8.40864Z" fill="#313132"/>
</svg>
