<svg width="17" height="14" viewBox="0 0 17 14" fill="none" xmlns="http://www.w3.org/2000/svg">
<path fill-rule="evenodd" clip-rule="evenodd" d="M8.96985 10.53L11.9698 13.53C12.1105 13.6705 12.3011 13.7493 12.4998 13.7493C12.6986 13.7493 12.8892 13.6705 13.0298 13.53L16.0298 10.53C16.1035 10.4613 16.1626 10.3785 16.2036 10.2865C16.2446 10.1945 16.2667 10.0952 16.2684 9.99452C16.2702 9.89382 16.2517 9.79379 16.214 9.7004C16.1762 9.60701 16.1201 9.52218 16.0489 9.45096C15.9777 9.37974 15.8928 9.3236 15.7994 9.28588C15.7061 9.24816 15.606 9.22963 15.5053 9.23141C15.4046 9.23318 15.3053 9.25523 15.2133 9.29622C15.1213 9.33721 15.0385 9.39631 14.9698 9.47L13.2498 11.19V1C13.2498 0.801088 13.1708 0.610322 13.0302 0.46967C12.8895 0.329018 12.6988 0.25 12.4998 0.25C12.3009 0.25 12.1102 0.329018 11.9695 0.46967C11.8289 0.610322 11.7498 0.801088 11.7498 1V11.19L10.0298 9.47C9.96118 9.39631 9.87838 9.33721 9.78638 9.29622C9.69439 9.25523 9.59507 9.23318 9.49437 9.23141C9.39367 9.22963 9.29364 9.24816 9.20025 9.28588C9.10686 9.3236 9.02203 9.37974 8.95081 9.45096C8.87959 9.52218 8.82344 9.60701 8.78572 9.7004C8.748 9.79379 8.72948 9.89382 8.73125 9.99452C8.73303 10.0952 8.75507 10.1945 8.79607 10.2865C8.83706 10.3785 8.89616 10.4613 8.96985 10.53ZM5.02985 0.47C4.88922 0.329549 4.6986 0.25066 4.49985 0.25066C4.3011 0.25066 4.11047 0.329549 3.96985 0.47L0.969846 3.47C0.837366 3.61218 0.765243 3.80022 0.768672 3.99452C0.7721 4.18882 0.850812 4.37421 0.988225 4.51162C1.12564 4.64903 1.31102 4.72775 1.50532 4.73118C1.69963 4.7346 1.88767 4.66248 2.02985 4.53L3.74985 2.81V13C3.74985 13.1989 3.82886 13.3897 3.96952 13.5303C4.11017 13.671 4.30093 13.75 4.49985 13.75C4.69876 13.75 4.88952 13.671 5.03018 13.5303C5.17083 13.3897 5.24985 13.1989 5.24985 13V2.81L6.96985 4.53C7.03851 4.60369 7.12131 4.66279 7.21331 4.70378C7.30531 4.74477 7.40462 4.76682 7.50532 4.76859C7.60603 4.77037 7.70606 4.75184 7.79944 4.71412C7.89283 4.6764 7.97767 4.62026 8.04888 4.54904C8.1201 4.47782 8.17625 4.39299 8.21397 4.2996C8.25169 4.20621 8.27022 4.10618 8.26844 4.00548C8.26666 3.90478 8.24462 3.80546 8.20363 3.71346C8.16264 3.62146 8.10353 3.53866 8.02985 3.47L5.02985 0.47Z" fill="#313132"/>
</svg>
