<svg width="17" height="14" viewBox="0 0 17 14" fill="none" xmlns="http://www.w3.org/2000/svg">
<path d="M0.553797 6.90025L4.37755 8.19878L13.4566 2.6484C13.5884 2.56825 13.7232 2.74697 13.6098 2.85147L6.73652 9.17787L6.4812 12.7196C6.47703 12.7789 6.491 12.8381 6.52124 12.8893C6.55149 12.9405 6.59659 12.9813 6.65056 13.0063C6.70453 13.0313 6.76482 13.0393 6.82343 13.0292C6.88205 13.0192 6.93622 12.9915 6.97877 12.95L9.09489 10.8689L12.9638 13.7972C13.3806 14.1131 13.9844 13.8905 14.0966 13.3798L16.7905 1.14859C16.9443 0.450935 16.2603 -0.138065 15.5935 0.117247L0.534797 5.88375C0.0621716 6.06484 0.0752341 6.73756 0.553797 6.90025Z" fill="#313132"/>
</svg>
