<svg width="17" height="18" viewBox="0 0 17 18" fill="none" xmlns="http://www.w3.org/2000/svg">
<g clip-path="url(#clip0_126_712)">
<path d="M16.9099 12.9099C16.8893 12.8655 16.8701 12.8287 16.8523 12.7992C16.5573 12.268 15.9937 11.616 15.1617 10.843L15.1441 10.8253L15.1353 10.8166L15.1264 10.8077H15.1175C14.7399 10.4477 14.5008 10.2057 14.4006 10.0818C14.2174 9.84575 14.1764 9.60682 14.2765 9.36473C14.3473 9.18182 14.613 8.79554 15.0731 8.20536C15.3152 7.89259 15.5068 7.64191 15.6484 7.45305C16.6693 6.09579 17.1119 5.22849 16.9761 4.8508L16.9234 4.76254C16.888 4.7094 16.7965 4.66079 16.6492 4.61646C16.5015 4.57222 16.3127 4.5649 16.0825 4.59438L13.5334 4.61199C13.4921 4.59736 13.4332 4.59872 13.3563 4.61646L13.2412 4.64309L13.1969 4.66525L13.1617 4.69188C13.1321 4.70949 13.0997 4.74046 13.0642 4.78473C13.029 4.82885 12.9995 4.88062 12.976 4.93962C12.6984 5.65362 12.3829 6.31746 12.0288 6.9311C11.8104 7.29702 11.6099 7.61413 11.4268 7.88264C11.2439 8.15105 11.0905 8.34881 10.9666 8.47557C10.8426 8.60246 10.7307 8.70412 10.6302 8.78091C10.5299 8.85773 10.4533 8.89019 10.4002 8.87832C10.347 8.86644 10.297 8.85466 10.2496 8.84288C10.167 8.78974 10.1006 8.71748 10.0505 8.62602C10.0003 8.53457 9.96641 8.41946 9.94871 8.28079C9.9311 8.14203 9.92068 8.02267 9.9177 7.92232C9.91495 7.82209 9.91622 7.68032 9.9222 7.49741C9.92834 7.31441 9.9311 7.19059 9.9311 7.12567C9.9311 6.9014 9.93547 6.65801 9.94424 6.39543C9.95317 6.13284 9.96039 5.92479 9.96644 5.77152C9.97245 5.61809 9.97524 5.45577 9.97524 5.28464C9.97524 5.11351 9.96483 4.9793 9.94424 4.88189C9.92368 4.7844 9.8926 4.68942 9.85155 4.59863C9.81016 4.50718 9.74958 4.43643 9.67009 4.38621C9.59045 4.33605 9.49143 4.29624 9.3736 4.26667C9.06082 4.19589 8.66254 4.1576 8.17857 4.15165C7.08109 4.13987 6.37589 4.21074 6.06315 4.36417C5.93923 4.42899 5.8271 4.51756 5.72684 4.6296C5.6206 4.75947 5.60578 4.83034 5.68248 4.84199C6.03658 4.89504 6.28726 5.02193 6.43479 5.22254L6.48796 5.32884C6.52932 5.40554 6.57061 5.54133 6.61194 5.73602C6.6532 5.93071 6.67983 6.14608 6.69155 6.382C6.721 6.81283 6.721 7.18163 6.69155 7.48842C6.66201 7.79534 6.6341 8.03427 6.60747 8.20539C6.58084 8.37652 6.54104 8.51519 6.48796 8.62137C6.43479 8.72759 6.39942 8.7925 6.38169 8.81606C6.36399 8.83963 6.34923 8.85448 6.33751 8.8603C6.26125 8.8897 6.18022 8.90474 6.09849 8.90467C6.01581 8.90467 5.91555 8.86331 5.79756 8.78066C5.67959 8.69801 5.55717 8.58448 5.43028 8.43989C5.30339 8.29527 5.16029 8.09317 5.00091 7.83356C4.84165 7.57395 4.67641 7.26713 4.50528 6.91309L4.3637 6.65633C4.27519 6.49116 4.15428 6.25065 4.00085 5.93502C3.84733 5.61927 3.71164 5.31384 3.59368 5.0188C3.54653 4.89488 3.47569 4.80055 3.38129 4.73563L3.33699 4.709C3.30753 4.68544 3.26026 4.66042 3.1954 4.63376C3.12992 4.60699 3.06162 4.58771 2.99181 4.57628L0.566586 4.59389C0.318759 4.59389 0.150606 4.65003 0.0620653 4.76217L0.0266304 4.81521C0.00892847 4.84475 0 4.89194 0 4.95689C0 5.0218 0.0177019 5.10148 0.0531368 5.19582C0.407176 6.0279 0.792185 6.83038 1.20817 7.60337C1.62415 8.37637 1.98562 8.99904 2.29239 9.47082C2.59921 9.94294 2.91195 10.3885 3.23062 10.8074C3.54929 11.2263 3.76022 11.4949 3.86343 11.6128C3.96675 11.731 4.04792 11.8193 4.10691 11.8783L4.32823 12.0907C4.46985 12.2324 4.67781 12.402 4.9522 12.5997C5.22666 12.7974 5.53051 12.9921 5.8639 13.184C6.19735 13.3757 6.58528 13.532 7.02789 13.653C7.47044 13.774 7.90117 13.8226 8.32016 13.7992H9.33807C9.54451 13.7814 9.70091 13.7164 9.80721 13.6044L9.84243 13.56C9.86612 13.5248 9.88828 13.4701 9.90875 13.3965C9.92945 13.3227 9.93975 13.2415 9.93975 13.1531C9.9337 12.8994 9.95302 12.6707 9.99716 12.4672C10.0413 12.2637 10.0916 12.1103 10.1478 12.0069C10.204 11.9037 10.2674 11.8166 10.338 11.746C10.4088 11.6752 10.4592 11.6323 10.4888 11.6176C10.5181 11.6027 10.5416 11.5926 10.5593 11.5866C10.7009 11.5394 10.8676 11.5851 11.0596 11.7239C11.2514 11.8626 11.4313 12.0338 11.5995 12.2373C11.7677 12.441 11.9698 12.6695 12.2058 12.9232C12.4419 13.1769 12.6484 13.3656 12.8253 13.4897L13.0023 13.5959C13.1205 13.6668 13.2739 13.7317 13.4628 13.7907C13.6513 13.8496 13.8165 13.8644 13.9583 13.8349L16.2241 13.7996C16.4482 13.7996 16.6226 13.7625 16.7463 13.6888C16.8703 13.6151 16.9439 13.5338 16.9676 13.4454C16.9913 13.357 16.9926 13.2566 16.9721 13.1444C16.9511 13.0324 16.9305 12.9541 16.9099 12.9099Z" fill="#313132"/>
</g>
<defs>
<clipPath id="clip0_126_712">
<rect width="17" height="17" fill="white" transform="translate(0 0.5)"/>
</clipPath>
</defs>
</svg>
