<svg width="10" height="9" viewBox="0 0 10 9" fill="none" xmlns="http://www.w3.org/2000/svg">
<g clip-path="url(#clip0_0_591)">
<path d="M5.23111 0.000244141H5.22886C2.74767 0.000244141 0.72998 2.01849 0.72998 4.50024C0.72998 5.48462 1.04723 6.39699 1.58667 7.13781L1.02586 8.80956L2.75554 8.25662C3.46711 8.72799 4.31592 9.00024 5.23111 9.00024C7.71229 9.00024 9.72998 6.98143 9.72998 4.50024C9.72998 2.01906 7.71229 0.000244141 5.23111 0.000244141ZM7.84954 6.35481C7.74098 6.66137 7.31011 6.91562 6.96642 6.98987C6.73129 7.03993 6.42417 7.07987 5.39029 6.65124C4.06786 6.10337 3.21623 4.75956 3.14986 4.67237C3.08629 4.58518 2.61548 3.96081 2.61548 3.31506C2.61548 2.66931 2.94342 2.35487 3.07561 2.21987C3.18417 2.10906 3.36361 2.05843 3.53573 2.05843C3.59142 2.05843 3.64148 2.06124 3.68648 2.06349C3.81867 2.06912 3.88504 2.07699 3.97223 2.28568C4.08079 2.54724 4.34517 3.19299 4.37667 3.25937C4.40873 3.32574 4.44079 3.41574 4.39579 3.50293C4.35361 3.59293 4.31648 3.63287 4.25011 3.70937C4.18373 3.78587 4.12073 3.84437 4.05436 3.92649C3.99361 3.99793 3.92498 4.07443 4.00148 4.20662C4.07798 4.33599 4.34236 4.76743 4.73161 5.11393C5.23392 5.56112 5.64117 5.70399 5.78686 5.76474C5.89542 5.80974 6.02479 5.79906 6.10411 5.71468C6.20479 5.60612 6.32911 5.42612 6.45567 5.24893C6.54567 5.12181 6.65929 5.10606 6.77854 5.15106C6.90004 5.19324 7.54298 5.51106 7.67517 5.57687C7.80736 5.64324 7.89454 5.67474 7.92661 5.73043C7.95811 5.78612 7.95811 6.04768 7.84954 6.35481Z" fill="#313132"/>
</g>
<defs>
<clipPath id="clip0_0_591">
<rect width="9" height="9" fill="white" transform="translate(0.72998 0.000244141)"/>
</clipPath>
</defs>
</svg>
